<?xml version="1.0" standalone="no"?>
<!DOCTYPE svg PUBLIC "-//W3C//DTD SVG 20010904//EN"
 "http://www.w3.org/TR/2001/REC-SVG-20010904/DTD/svg10.dtd">
<svg version="1.0" xmlns="http://www.w3.org/2000/svg"
 width="512.000000pt" height="512.000000pt" viewBox="0 0 512.000000 512.000000"
 preserveAspectRatio="xMidYMid meet">
<metadata>
Created by potrace 1.14, written by Peter Selinger 2001-2017
</metadata>
<g transform="translate(0.000000,512.000000) scale(0.100000,-0.100000)"
fill="#000000" stroke="none">
<path d="M1410 4899 c-67 -13 -159 -62 -212 -114 -44 -43 -96 -118 -102 -147
-2 -7 -6 -21 -11 -31 -4 -9 -10 -41 -14 -70 l-6 -52 -255 -6 c-231 -5 -260 -7
-310 -27 -211 -84 -324 -295 -274 -514 25 -107 247 -471 394 -642 182 -213
374 -386 598 -537 56 -38 106 -69 110 -69 4 0 15 -24 25 -52 167 -484 425
-846 730 -1021 26 -16 47 -33 48 -40 4 -56 0 -532 -5 -560 -9 -49 -59 -113
-107 -138 -25 -12 -69 -23 -108 -26 -120 -8 -214 -49 -290 -126 -91 -91 -129
-194 -127 -347 2 -112 17 -145 75 -159 20 -5 452 -8 1011 -8 1070 2 1004 -2
1034 62 19 40 14 212 -8 280 -27 87 -98 180 -176 230 -53 34 -148 63 -222 69
-99 7 -161 44 -200 120 -18 36 -20 59 -20 305 0 344 -2 318 24 327 12 3 44 21
72 39 261 167 480 468 639 880 25 66 48 127 50 136 3 8 51 46 108 84 349 232
635 524 826 840 178 295 193 327 198 435 8 193 -116 375 -297 436 -68 22 -56
21 -325 23 l-233 1 0 38 c0 84 -53 195 -129 268 -52 51 -144 100 -211 112 -60
11 -2241 11 -2300 1z m-339 -709 c0 -41 2 -83 4 -92 2 -10 6 -68 10 -130 4
-62 8 -115 10 -118 2 -3 6 -39 10 -80 4 -41 9 -82 10 -91 2 -9 6 -40 10 -70 3
-30 13 -92 21 -139 13 -81 17 -102 29 -160 2 -14 7 -36 9 -50 2 -14 14 -68 26
-120 12 -52 23 -103 25 -112 2 -10 1 -18 -1 -18 -22 0 -329 278 -399 362 -122
144 -195 248 -311 442 -88 148 -89 151 -91 220 -3 116 63 203 172 226 17 3
128 6 248 6 l217 0 1 -76z m3495 53 c85 -45 128 -123 122 -219 -3 -56 -11 -73
-92 -210 -79 -133 -182 -289 -211 -320 -5 -7 -26 -31 -45 -55 -49 -61 -115
-133 -185 -202 -70 -69 -264 -231 -270 -226 -2 2 3 31 11 64 22 98 63 297 69
340 3 22 8 51 10 65 3 14 7 43 11 65 3 22 7 51 9 65 3 14 7 50 11 80 3 30 8
62 9 70 2 8 6 56 10 105 4 50 8 100 10 113 2 13 7 81 11 150 3 70 8 130 10
133 2 3 108 5 236 5 218 -2 236 -3 274 -23z"/>
</g>
</svg>
